<?xml version="1.0" encoding="UTF-8"?>
<svg width="60px" height="61px" viewBox="0 0 60 61" version="1.1" xmlns="http://www.w3.org/2000/svg" xmlns:xlink="http://www.w3.org/1999/xlink">
    <!-- Generator: Sketch 43.2 (39069) - http://www.bohemiancoding.com/sketch -->
    <title>Page 1</title>
    <desc>Created with Sketch.</desc>
    <defs></defs>
    <g id="Page-1" stroke="none" stroke-width="1" fill="none" fill-rule="evenodd" stroke-linecap="round" stroke-linejoin="round">
        <g transform="translate(0.000000, 1.000000)" stroke="#2C6D82">
            <polyline id="Stroke-1" points="8.2002 57.5 22.3542 57.5 42.9442 51.6533 46.8042 46.5 21.5 46.5 21.5 36.5 18.4942 36.5 12.0602 46.5 8.2002 46.5"></polyline>
            <polygon id="Stroke-3" points="8.5 59.5 0.5 59.5 0.5 44.5 8.5 44.5"></polygon>
            <path d="M33.9365,33.6372 L50.5735,17.0002" id="Stroke-5"></path>
            <polygon id="Stroke-7" points="50.5 27.5 41.657 25.9161 40.37 16.9091 48.754 8.5 54.525 8.5 59.5 4.0401 59.5 19.4821"></polygon>
            <polyline id="Stroke-9" points="16.9033 16.6045 34.5 33.6375 34.5 41.3585"></polyline>
            <polygon id="Stroke-11" points="17.5 30.5 28.825 28.5269 30.076 16.9089 19.781 5.5 13.348 5.5 5.5 0.1799 5.5 19.4829"></polygon>
        </g>
    </g>
</svg>